<?xml version="1.0" encoding="UTF-8" standalone="no"?>
<svg width="493" height="58" viewBox="0 0 493 58" fill="none" xmlns="http://www.w3.org/2000/svg">
  <!-- Background -->
  <rect width="493" height="58" fill="#2C3E50"/>
  
  <!-- Title -->
  <text x="20" y="35" font-family="Arial" font-size="24" font-weight="bold" fill="#ECF0F1">TerraFusion GAMA Enterprise</text>
  
  <!-- Subtitle -->
  <text x="22" y="48" font-family="Arial" font-size="12" fill="#BDC3C7">Geographic Assisted Mass Appraisal</text>
  
  <!-- Decorative Elements -->
  <rect x="0" y="0" width="8" height="58" fill="#3498DB"/>
  <rect x="485" y="0" width="8" height="58" fill="#3498DB"/>
  
  <!-- Map Icon -->
  <g transform="translate(440,18) scale(0.02)">
    <path d="M832 512c0-176.7-143.3-320-320-320-176.7 0-320 143.3-320 320 0 176.7 143.3 320 320 320 176.7 0 320-143.3 320-320zM192 512c0-176.7 143.3-320 320-320 176.7 0 320 143.3 320 320 0 176.7-143.3 320-320 320-176.7 0-320-143.3-320-320z" fill="#3498DB"/>
    <path d="M440 280v432c0 8.8-7.2 16-16 16h-32c-8.8 0-16-7.2-16-16V280c0-8.8 7.2-16 16-16h32c8.8 0 16 7.2 16 16z" fill="#ECF0F1"/>
    <path d="M632 280v432c0 8.8-7.2 16-16 16h-32c-8.8 0-16-7.2-16-16V280c0-8.8 7.2-16 16-16h32c8.8 0 16 7.2 16 16z" fill="#ECF0F1"/>
    <path d="M232 442h544c8.8 0 16 7.2 16 16v32c0 8.8-7.2 16-16 16H232c-8.8 0-16-7.2-16-16v-32c0-8.8 7.2-16 16-16z" fill="#ECF0F1"/>
    <path d="M232 634h544c8.8 0 16 7.2 16 16v32c0 8.8-7.2 16-16 16H232c-8.8 0-16-7.2-16-16v-32c0-8.8 7.2-16 16-16z" fill="#ECF0F1"/>
  </g>
</svg>