<?xml version="1.0" encoding="UTF-8" standalone="no"?>
<svg width="800" height="500" xmlns="http://www.w3.org/2000/svg">
  <!-- Background -->
  <rect width="800" height="500" fill="#f9f9f9"/>
  
  <!-- Title -->
  <text x="400" y="40" font-family="Arial" font-size="24" fill="#333" text-anchor="middle" font-weight="bold">TerraFusion DriftGuard Architecture</text>
  
  <!-- Kubernetes Cluster Box -->
  <rect x="50" y="70" width="700" height="380" fill="#f0f8ff" stroke="#00008b" stroke-width="2" rx="10" ry="10"/>
  <text x="400" y="90" font-family="Arial" font-size="16" fill="#00008b" text-anchor="middle" font-weight="bold">Kubernetes Cluster</text>
  
  <!-- DriftGuard Operator Box -->
  <rect x="100" y="120" width="220" height="160" fill="#e6f2ff" stroke="#1167b1" stroke-width="2" rx="5" ry="5"/>
  <text x="210" y="140" font-family="Arial" font-size="14" fill="#1167b1" text-anchor="middle" font-weight="bold">DriftGuard Operator</text>
  
  <!-- Internal Components -->
  <rect x="120" y="160" width="180" height="30" fill="#ffffff" stroke="#1167b1" stroke-width="1" rx="3" ry="3"/>
  <text x="210" y="180" font-family="Arial" font-size="12" fill="#333" text-anchor="middle">Drift Detection Engine</text>
  
  <rect x="120" y="200" width="180" height="30" fill="#ffffff" stroke="#1167b1" stroke-width="1" rx="3" ry="3"/>
  <text x="210" y="220" font-family="Arial" font-size="12" fill="#333" text-anchor="middle">Remediation Controller</text>
  
  <rect x="120" y="240" width="180" height="30" fill="#ffffff" stroke="#1167b1" stroke-width="1" rx="3" ry="3"/>
  <text x="210" y="260" font-family="Arial" font-size="12" fill="#333" text-anchor="middle">Telemetry Reporter</text>
  
  <!-- Config Service Box -->
  <rect x="480" y="120" width="220" height="160" fill="#e6f2ff" stroke="#1167b1" stroke-width="2" rx="5" ry="5"/>
  <text x="590" y="140" font-family="Arial" font-size="14" fill="#1167b1" text-anchor="middle" font-weight="bold">Configuration Service</text>
  
  <!-- Internal Components -->
  <rect x="500" y="160" width="180" height="30" fill="#ffffff" stroke="#1167b1" stroke-width="1" rx="3" ry="3"/>
  <text x="590" y="180" font-family="Arial" font-size="12" fill="#333" text-anchor="middle">Config Store</text>
  
  <rect x="500" y="200" width="180" height="30" fill="#ffffff" stroke="#1167b1" stroke-width="1" rx="3" ry="3"/>
  <text x="590" y="220" font-family="Arial" font-size="12" fill="#333" text-anchor="middle">Hash Validation</text>
  
  <rect x="500" y="240" width="180" height="30" fill="#ffffff" stroke="#1167b1" stroke-width="1" rx="3" ry="3"/>
  <text x="590" y="260" font-family="Arial" font-size="12" fill="#333" text-anchor="middle">API Security</text>
  
  <!-- Resources Box -->
  <rect x="100" y="320" width="600" height="100" fill="#e6f2ff" stroke="#1167b1" stroke-width="2" rx="5" ry="5"/>
  <text x="400" y="340" font-family="Arial" font-size="14" fill="#1167b1" text-anchor="middle" font-weight="bold">Monitored Resources</text>
  
  <!-- Resources -->
  <rect x="120" y="360" width="160" height="40" fill="#ffffff" stroke="#1167b1" stroke-width="1" rx="3" ry="3"/>
  <text x="200" y="385" font-family="Arial" font-size="12" fill="#333" text-anchor="middle">ConfigMaps</text>
  
  <rect x="320" y="360" width="160" height="40" fill="#ffffff" stroke="#1167b1" stroke-width="1" rx="3" ry="3"/>
  <text x="400" y="385" font-family="Arial" font-size="12" fill="#333" text-anchor="middle">Secrets</text>
  
  <rect x="520" y="360" width="160" height="40" fill="#ffffff" stroke="#1167b1" stroke-width="1" rx="3" ry="3"/>
  <text x="600" y="385" font-family="Arial" font-size="12" fill="#333" text-anchor="middle">GAMA Configs</text>
  
  <!-- Connection Lines -->
  <!-- Operator to Config Service -->
  <line x1="320" y1="180" x2="480" y2="180" stroke="#1167b1" stroke-width="2"/>
  <polygon points="475,175 485,180 475,185" fill="#1167b1"/>
  <text x="400" y="170" font-family="Arial" font-size="10" fill="#666" text-anchor="middle">API Calls</text>
  
  <!-- Operator to Resources -->
  <line x1="210" y1="280" x2="210" y2="320" stroke="#1167b1" stroke-width="2"/>
  <polygon points="205,315 210,325 215,315" fill="#1167b1"/>
  <text x="240" y="300" font-family="Arial" font-size="10" fill="#666" text-anchor="middle">Monitors</text>
  
  <!-- Config Service to Resources -->
  <line x1="590" y1="280" x2="590" y2="320" stroke="#1167b1" stroke-width="2"/>
  <polygon points="585,315 590,325 595,315" fill="#1167b1"/>
  <text x="620" y="300" font-family="Arial" font-size="10" fill="#666" text-anchor="middle">Provides Configuration</text>
  
  <!-- CRD -->
  <rect x="350" y="200" width="100" height="40" fill="#ffe6e6" stroke="#b11111" stroke-width="2" rx="3" ry="3"/>
  <text x="400" y="225" font-family="Arial" font-size="12" fill="#b11111" text-anchor="middle" font-weight="bold">DriftGuard CRD</text>
  
  <!-- CRD Connections -->
  <line x1="320" y1="220" x2="350" y2="220" stroke="#b11111" stroke-width="2"/>
  <polygon points="345,215 355,220 345,225" fill="#b11111"/>
  
  <line x1="450" y1="220" x2="480" y2="220" stroke="#b11111" stroke-width="2"/>
  <polygon points="475,215 485,220 475,225" fill="#b11111"/>
  
  <!-- Legend -->
  <rect x="600" y="70" width="140" height="40" fill="#f0f8ff" stroke="#00008b" stroke-width="1" rx="3" ry="3"/>
  <circle cx="620" y="85" r="6" fill="#1167b1"/>
  <text x="640" y="90" font-family="Arial" font-size="12" fill="#333">Controllers</text>
  <circle cx="620" y="105" r="6" fill="#b11111"/>
  <text x="640" y="110" font-family="Arial" font-size="12" fill="#333">Custom Resources</text>
</svg>