<?xml version="1.0" encoding="UTF-8" standalone="no"?>
<svg width="493" height="312" viewBox="0 0 493 312" fill="none" xmlns="http://www.w3.org/2000/svg">
  <!-- Background -->
  <rect width="493" height="312" fill="#ECF0F1"/>
  
  <!-- Left sidebar -->
  <rect width="150" height="312" fill="#2C3E50"/>
  
  <!-- Logo area -->
  <rect x="25" y="30" width="100" height="100" rx="10" fill="#3498DB"/>
  
  <!-- Stylized "TF" logo -->
  <text x="45" y="95" font-family="Arial" font-size="60" font-weight="bold" fill="#ECF0F1">TF</text>
  
  <!-- Title on sidebar -->
  <text x="30" y="170" font-family="Arial" font-size="18" font-weight="bold" fill="#ECF0F1">TerraFusion</text>
  <text x="35" y="195" font-family="Arial" font-size="16" fill="#ECF0F1">GAMA</text>
  <text x="25" y="215" font-family="Arial" font-size="14" fill="#ECF0F1">Enterprise</text>
  
  <!-- Version -->
  <text x="30" y="285" font-family="Arial" font-size="12" fill="#BDC3C7">Version 1.2.0</text>
  
  <!-- Main content area header -->
  <text x="170" y="50" font-family="Arial" font-size="22" font-weight="bold" fill="#2C3E50">Geographic Assisted Mass Appraisal</text>
  <text x="170" y="75" font-family="Arial" font-size="14" fill="#7F8C8D">Enterprise Installation</text>
  
  <!-- Separator line -->
  <line x1="170" y1="90" x2="473" y2="90" stroke="#BDC3C7" stroke-width="1"/>
  
  <!-- Feature bullets -->
  <circle cx="180" cy="120" r="5" fill="#3498DB"/>
  <text x="195" y="125" font-family="Arial" font-size="14" fill="#2C3E50">Advanced Geospatial Analytics</text>
  
  <circle cx="180" cy="150" r="5" fill="#3498DB"/>
  <text x="195" y="155" font-family="Arial" font-size="14" fill="#2C3E50">Spatial Regression Modeling</text>
  
  <circle cx="180" cy="180" r="5" fill="#3498DB"/>
  <text x="195" y="185" font-family="Arial" font-size="14" fill="#2C3E50">Compliance Audit Logging</text>
  
  <circle cx="180" cy="210" r="5" fill="#3498DB"/>
  <text x="195" y="215" font-family="Arial" font-size="14" fill="#2C3E50">DriftGuard™ Configuration Protection</text>
  
  <circle cx="180" cy="240" r="5" fill="#3498DB"/>
  <text x="195" y="245" font-family="Arial" font-size="14" fill="#2C3E50">Enterprise Grade Security</text>
  
  <!-- Decorative map elements -->
  <g transform="translate(380,145) scale(0.15)">
    <path d="M384 0H64C28.7 0 0 28.7 0 64v384c0 35.3 28.7 64 64 64h320c35.3 0 64-28.7 64-64V64c0-35.3-28.7-64-64-64zm32 448c0 17.6-14.4 32-32 32H64c-17.6 0-32-14.4-32-32V64c0-17.6 14.4-32 32-32h320c17.6 0 32 14.4 32 32v384z" fill="#3498DB" opacity="0.2"/>
    <path d="M128 96c-35.3 0-64 28.7-64 64s64 128 64 128 64-92.7 64-128-28.7-64-64-64zm0 96c-17.7 0-32-14.3-32-32s14.3-32 32-32 32 14.3 32 32-14.3 32-32 32z" fill="#3498DB" opacity="0.3"/>
    <path d="M384 256c-35.3 0-64 28.7-64 64s64 128 64 128 64-92.7 64-128-28.7-64-64-64zm0 96c-17.7 0-32-14.3-32-32s14.3-32 32-32 32 14.3 32 32-14.3 32-32 32z" fill="#3498DB" opacity="0.3"/>
  </g>
  
  <!-- Bottom info -->
  <text x="170" y="290" font-family="Arial" font-size="12" fill="#7F8C8D">For county assessment professionals</text>
  <text x="170" y="310" font-family="Arial" font-size="12" fill="#7F8C8D">© 2025 TerraFusion. All rights reserved.</text>
</svg>